<svg xmlns="http://www.w3.org/2000/svg" height="24" viewBox="0 96 960 960" width="24"><path d="M580 816q25 0 42.5-17.5T640 756q0-25-17.5-42.5T580 696q-25 0-42.5 17.5T520 756q0 25 17.5 42.5T580 816Zm-202-2 260-260-56-56-260 260 56 56Zm2-198q25 0 42.5-17.5T440 556q0-25-17.5-42.5T380 496q-25 0-42.5 17.5T320 556q0 25 17.5 42.5T380 616Zm100 360q-137 0-228.5-94T160 648q0-100 79.5-217.5T480 176q161 137 240.5 254.5T800 648q0 140-91.5 234T480 976Zm0-80q104 0 172-70.5T720 648q0-73-60.5-165T480 282Q361 391 300.5 483T240 648q0 107 68 177.5T480 896Zm0-320Z"/></svg>